<?xml version="1.0" encoding="utf-8"?>
<!-- Generator: Adobe Illustrator 21.1.0, SVG Export Plug-In . SVG Version: 6.00 Build 0)  -->
<svg version="1.1" baseProfile="basic" id="Layer_1"
	 xmlns="http://www.w3.org/2000/svg" xmlns:xlink="http://www.w3.org/1999/xlink" x="0px" y="0px" viewBox="0 0 733.9 850.4"
	 xml:space="preserve">
<style type="text/css">
	.st0{fill:none;stroke:#000000;stroke-width:2;stroke-miterlimit:10;}
	.st1{fill:#FFFFFF;}
	.st2{fill:#3C3C3B;}
</style>
<path d="M733.9,250.9c0-69.2-24.2-128.4-72.7-177.4C612.7,24.5,553.9,0,484.8,0H250.9c89.4,21.9,169.6,75,240.7,159.6l-138.3,84.8
	c-59-64.5-125.4-96.8-199.2-96.8C96,147.6,44.6,162.7,0,192.9v463c44.6,29.9,96,44.9,154.1,44.9c60.9,0,115.7-18.2,164.6-54.6
	c48.9-36.4,82.1-83.7,99.6-141.8H86.4V345.4h502v80c0,120.5-42.2,223-126.5,307.6c-61.4,61.5-132.4,100.7-213,117.4l233.2-0.6
	c70,0,129.5-24.7,178.4-74.2c48.9-49.5,73.4-109.2,73.4-179.4c0-67.4-22.9-125-68.7-172.7C711,375,733.9,317.4,733.9,250.9z"/>
</svg>
